<?xml version="1.0" encoding="UTF-8"?>
<svg width="154px" height="46px" viewBox="0 0 154 46" version="1.1" xmlns="http://www.w3.org/2000/svg" xmlns:xlink="http://www.w3.org/1999/xlink">
    <title>BEAF0424-660A-435D-983C-4FE9D343140C</title>
    <g id="Homepage" stroke="none" stroke-width="1" fill="none" fill-rule="evenodd">
        <g id="LG-Homepage-DE" transform="translate(-600.000000, -5972.000000)" fill-rule="nonzero">
            <g id="Footer/Large" transform="translate(0.000000, 5923.000000)">
                <g id="Media/AppStore/EN" transform="translate(600.000000, 49.000000)">
                    <g id="apple-badge_ENG_reinzeichnung20180910">
                        <path d="M148.296296,46 L5.7037037,46 C2.6237037,46 0,43.47 0,40.25 L0,5.75 C0,2.53 2.50962963,0 5.7037037,0 L148.296296,0 C151.49037,0 154,2.53 154,5.75 L154,40.25 C154,43.355 151.376296,46 148.296296,46 Z" id="Path" fill="#000000"></path>
                        <path d="M148.296296,0.92 C150.92,0.92 153.087407,3.105 153.087407,5.75 L153.087407,40.25 C153.087407,42.895 150.92,45.08 148.296296,45.08 L5.7037037,45.08 C3.08,45.08 0.912592593,42.895 0.912592593,40.25 L0.912592593,5.75 C0.912592593,3.105 3.08,0.92 5.7037037,0.92 L148.296296,0.92 M148.296296,0 L5.7037037,0 C2.50962963,0 0,2.53 0,5.75 L0,40.25 C0,43.47 2.50962963,46 5.7037037,46 L148.296296,46 C151.49037,46 154,43.47 154,40.25 L154,5.75 C154,2.53 151.376296,0 148.296296,0 L148.296296,0 Z" id="Shape" fill="#000000"></path>
                        <g id="Group" transform="translate(47.911111, 19.550000)" fill="#FFFFFF">
                            <path d="M9.6962963,11.5 L4.33481481,11.5 L3.08,15.41 L0.798518519,15.41 L5.93185185,1.15 L8.32740741,1.15 L13.4607407,15.41 L11.1792593,15.41 L9.6962963,11.5 Z M4.90518519,9.66 L9.12592593,9.66 L7.07259259,3.45 L6.95851852,3.45 L4.90518519,9.66 Z" id="Shape"></path>
                            <path d="M24.4118519,10.12 C24.4118519,13.34 22.7007407,15.41 20.077037,15.41 C18.5940741,15.41 17.4533333,14.72 16.882963,13.57 L16.882963,13.57 L16.882963,18.745 L14.7155556,18.745 L14.7155556,4.945 L16.7688889,4.945 L16.7688889,6.67 L16.7688889,6.67 C17.3392593,5.52 18.5940741,4.83 20.077037,4.83 C22.7007407,4.83 24.4118519,6.9 24.4118519,10.12 Z M22.2444444,10.12 C22.2444444,8.05 21.2177778,6.67 19.5066667,6.67 C17.9096296,6.67 16.7688889,8.05 16.7688889,10.12 C16.7688889,12.19 17.9096296,13.57 19.5066667,13.57 C21.1037037,13.685 22.2444444,12.305 22.2444444,10.12 Z" id="Shape"></path>
                            <path d="M35.7051852,10.12 C35.7051852,13.34 33.9940741,15.41 31.3703704,15.41 C29.8874074,15.41 28.7466667,14.72 28.1762963,13.57 L28.1762963,13.57 L28.1762963,18.745 L26.0088889,18.745 L26.0088889,4.945 L28.0622222,4.945 L28.0622222,6.67 L28.0622222,6.67 C28.6325926,5.52 29.8874074,4.83 31.3703704,4.83 C33.9940741,4.83 35.7051852,6.9 35.7051852,10.12 Z M33.5377778,10.12 C33.5377778,8.05 32.5111111,6.67 30.8,6.67 C29.202963,6.67 28.0622222,8.05 28.0622222,10.12 C28.0622222,12.19 29.202963,13.57 30.8,13.57 C32.5111111,13.685 33.5377778,12.305 33.5377778,10.12 Z" id="Shape"></path>
                            <path d="M43.2340741,11.385 C43.3481481,12.765 44.717037,13.685 46.6562963,13.685 C48.4814815,13.685 49.7362963,12.765 49.7362963,11.5 C49.7362963,10.35 48.9377778,9.775 47.1125926,9.315 L45.2874074,8.855 C42.6637037,8.165 41.522963,7.015 41.522963,5.06 C41.522963,2.645 43.6903704,0.92 46.6562963,0.92 C49.6222222,0.92 51.6755556,2.645 51.7896296,5.06 L49.6222222,5.06 C49.5081481,3.68 48.3674074,2.76 46.6562963,2.76 C44.9451852,2.76 43.8044444,3.68 43.8044444,4.945 C43.8044444,5.98 44.602963,6.555 46.4281481,7.015 L48.0251852,7.36 C50.877037,8.05 52.1318519,9.2 52.1318519,11.27 C52.1318519,13.915 49.9644444,15.64 46.6562963,15.64 C43.4622222,15.64 41.4088889,14.03 41.2948148,11.385 L43.2340741,11.385 L43.2340741,11.385 Z" id="Path"></path>
                            <path d="M56.5807407,2.53 L56.5807407,4.945 L58.52,4.945 L58.52,6.67 L56.5807407,6.67 L56.5807407,12.42 C56.5807407,13.34 56.922963,13.685 57.8355556,13.685 C58.0637037,13.685 58.4059259,13.685 58.52,13.685 L58.52,15.41 C58.2918519,15.525 57.8355556,15.525 57.3792593,15.525 C55.3259259,15.525 54.5274074,14.72 54.5274074,12.765 L54.5274074,6.785 L53.0444444,6.785 L53.0444444,5.06 L54.5274074,5.06 L54.5274074,2.645 L56.5807407,2.645 L56.5807407,2.53 Z" id="Path"></path>
                            <path d="M59.6607407,10.12 C59.6607407,6.9 61.6,4.83 64.5659259,4.83 C67.5318519,4.83 69.4711111,6.9 69.4711111,10.12 C69.4711111,13.455 67.5318519,15.41 64.5659259,15.41 C61.4859259,15.525 59.6607407,13.455 59.6607407,10.12 Z M67.3037037,10.12 C67.3037037,7.82 66.277037,6.555 64.5659259,6.555 C62.8548148,6.555 61.8281481,7.935 61.8281481,10.12 C61.8281481,12.42 62.8548148,13.685 64.5659259,13.685 C66.277037,13.685 67.3037037,12.42 67.3037037,10.12 Z" id="Shape"></path>
                            <path d="M71.1822222,4.945 L73.2355556,4.945 L73.2355556,6.67 L73.2355556,6.67 C73.5777778,5.52 74.4903704,4.83 75.7451852,4.83 C76.0874074,4.83 76.3155556,4.83 76.4296296,4.945 L76.4296296,6.9 C76.3155556,6.785 75.8592593,6.785 75.517037,6.785 C74.1481481,6.785 73.3496296,7.705 73.3496296,9.2 L73.3496296,15.41 L71.1822222,15.41 L71.1822222,4.945 L71.1822222,4.945 Z" id="Path"></path>
                            <path d="M86.24,12.305 C86.0118519,14.145 84.0725926,15.525 81.7911111,15.525 C78.8251852,15.525 76.8859259,13.455 76.8859259,10.235 C76.8859259,7.015 78.7111111,4.83 81.677037,4.83 C84.5288889,4.83 86.3540741,6.785 86.3540741,10.005 L86.3540741,10.695 L79.0533333,10.695 L79.0533333,10.81 C79.0533333,12.535 80.1940741,13.8 81.7911111,13.8 C82.9318519,13.8 83.8444444,13.225 84.1866667,12.305 L86.24,12.305 L86.24,12.305 Z M79.0533333,9.2 L84.1866667,9.2 C84.1866667,7.59 83.16,6.555 81.677037,6.555 C80.1940741,6.555 79.1674074,7.59 79.0533333,9.2 Z" id="Shape"></path>
                        </g>
                        <g id="Group" transform="translate(49.051852, 9.200000)" fill="#FFFFFF">
                            <path d="M3.42222222,0.69 C5.47555556,0.69 6.6162963,1.955 6.6162963,4.14 C6.6162963,6.325 5.47555556,7.59 3.42222222,7.59 L0.912592593,7.59 L0.912592593,0.69 L3.42222222,0.69 Z M2.05333333,6.555 L3.30814815,6.555 C4.67703704,6.555 5.58962963,5.635 5.58962963,4.14 C5.58962963,2.645 4.79111111,1.725 3.30814815,1.725 L2.05333333,1.725 L2.05333333,6.555 Z" id="Shape"></path>
                            <path d="M7.87111111,4.945 C7.87111111,3.22 8.7837037,2.3 10.2666667,2.3 C11.7496296,2.3 12.6622222,3.335 12.6622222,4.945 C12.6622222,6.67 11.7496296,7.59 10.2666667,7.59 C8.7837037,7.59 7.87111111,6.67 7.87111111,4.945 Z M11.6355556,4.945 C11.6355556,3.795 11.1792593,3.22 10.2666667,3.22 C9.35407407,3.22 8.89777778,3.91 8.89777778,4.945 C8.89777778,6.095 9.35407407,6.785 10.2666667,6.785 C11.1792593,6.785 11.6355556,6.095 11.6355556,4.945 Z" id="Shape"></path>
                            <polygon id="Path" points="19.1644444 7.59 18.1377778 7.59 17.1111111 3.795 16.997037 3.795 15.9703704 7.59 14.8296296 7.59 13.4607407 2.415 14.4874074 2.415 15.4 6.325 15.5140741 6.325 16.5407407 2.415 17.5674074 2.415 18.5940741 6.325 18.7081481 6.325 19.6207407 2.415 20.5333333 2.415"></polygon>
                            <path d="M21.7881481,2.415 L22.8148148,2.415 L22.8148148,3.22 L22.8148148,3.22 C23.042963,2.645 23.6133333,2.3 24.2977778,2.3 C25.4385185,2.3 26.122963,2.99 26.122963,4.255 L26.122963,7.59 L25.0962963,7.59 L25.0962963,4.485 C25.0962963,3.68 24.7540741,3.22 23.9555556,3.22 C23.157037,3.22 22.8148148,3.68 22.8148148,4.485 L22.8148148,7.475 L21.7881481,7.475 L21.7881481,2.415 Z" id="Path"></path>
                            <polygon id="Path" points="27.72 0.345 28.7466667 0.345 28.7466667 7.59 27.72 7.59"></polygon>
                            <path d="M30.1155556,4.945 C30.1155556,3.22 31.0281481,2.3 32.5111111,2.3 C33.9940741,2.3 34.9066667,3.335 34.9066667,4.945 C34.9066667,6.67 33.9940741,7.59 32.5111111,7.59 C31.0281481,7.59 30.1155556,6.67 30.1155556,4.945 Z M33.9940741,4.945 C33.9940741,3.795 33.5377778,3.22 32.6251852,3.22 C31.7125926,3.22 31.2562963,3.91 31.2562963,4.945 C31.2562963,6.095 31.7125926,6.785 32.6251852,6.785 C33.4237037,6.785 33.9940741,6.095 33.9940741,4.945 Z" id="Shape"></path>
                            <path d="M36.0474074,6.095 C36.0474074,5.175 36.7318519,4.6 37.9866667,4.6 L39.3555556,4.485 L39.3555556,4.025 C39.3555556,3.45 39.0133333,3.22 38.3288889,3.22 C37.7585185,3.22 37.4162963,3.45 37.3022222,3.795 L36.2755556,3.795 C36.3896296,2.875 37.1881481,2.3 38.3288889,2.3 C39.5837037,2.3 40.3822222,2.99 40.3822222,4.025 L40.3822222,7.59 L39.3555556,7.59 L39.3555556,6.9 L39.2414815,6.9 C38.8992593,7.475 38.3288889,7.705 37.6444444,7.705 C36.7318519,7.59 36.0474074,7.015 36.0474074,6.095 Z M39.3555556,5.635 L39.3555556,5.175 L38.1007407,5.29 C37.4162963,5.29 37.0740741,5.635 37.0740741,5.98 C37.0740741,6.44 37.5303704,6.67 37.9866667,6.67 C38.7851852,6.785 39.3555556,6.325 39.3555556,5.635 Z" id="Shape"></path>
                            <path d="M41.7511111,4.945 C41.7511111,3.335 42.5496296,2.3 43.9185185,2.3 C44.602963,2.3 45.1733333,2.645 45.5155556,3.22 L45.6296296,3.22 L45.6296296,0.345 L46.6562963,0.345 L46.6562963,7.59 L45.6296296,7.59 L45.6296296,6.785 L45.5155556,6.785 C45.1733333,7.36 44.602963,7.705 43.9185185,7.705 C42.5496296,7.59 41.7511111,6.555 41.7511111,4.945 Z M42.7777778,4.945 C42.7777778,6.095 43.3481481,6.67 44.1466667,6.67 C44.9451852,6.67 45.5155556,5.98 45.5155556,4.945 C45.5155556,3.91 44.9451852,3.22 44.1466667,3.22 C43.2340741,3.22 42.7777778,3.91 42.7777778,4.945 Z" id="Shape"></path>
                            <path d="M50.6488889,4.945 C50.6488889,3.22 51.5614815,2.3 53.0444444,2.3 C54.5274074,2.3 55.44,3.335 55.44,4.945 C55.44,6.67 54.5274074,7.59 53.0444444,7.59 C51.5614815,7.59 50.6488889,6.67 50.6488889,4.945 Z M54.5274074,4.945 C54.5274074,3.795 54.0711111,3.22 53.1585185,3.22 C52.2459259,3.22 51.7896296,3.91 51.7896296,4.945 C51.7896296,6.095 52.2459259,6.785 53.1585185,6.785 C53.957037,6.785 54.5274074,6.095 54.5274074,4.945 Z" id="Shape"></path>
                            <path d="M56.922963,2.415 L57.9496296,2.415 L57.9496296,3.22 L58.0637037,3.22 C58.2918519,2.645 58.8622222,2.3 59.5466667,2.3 C60.6874074,2.3 61.3718519,2.99 61.3718519,4.255 L61.3718519,7.59 L60.3451852,7.59 L60.3451852,4.485 C60.3451852,3.68 60.002963,3.22 59.2044444,3.22 C58.4059259,3.22 57.9496296,3.68 57.9496296,4.485 L57.9496296,7.475 L56.922963,7.475 L56.922963,2.415 L56.922963,2.415 Z" id="Path"></path>
                            <path d="M66.9614815,1.035 L66.9614815,2.3 L68.1022222,2.3 L68.1022222,3.105 L66.9614815,3.105 L66.9614815,5.75 C66.9614815,6.325 67.1896296,6.555 67.6459259,6.555 C67.76,6.555 67.8740741,6.555 67.9881481,6.555 L67.9881481,7.36 C67.8740741,7.36 67.6459259,7.36 67.4177778,7.36 C66.277037,7.36 65.8207407,7.015 65.8207407,5.98 L65.8207407,3.105 L65.0222222,3.105 L65.0222222,2.3 L65.8207407,2.3 L65.8207407,1.035 L66.9614815,1.035 Z" id="Path"></path>
                            <path d="M69.4711111,0.345 L70.4977778,0.345 L70.4977778,3.22 L70.6118519,3.22 C70.84,2.645 71.4103704,2.3 72.2088889,2.3 C73.3496296,2.3 74.0340741,2.99 74.0340741,4.255 L74.0340741,7.59 L73.0074074,7.59 L73.0074074,4.485 C73.0074074,3.68 72.6651852,3.22 71.8666667,3.22 C71.0681481,3.22 70.6118519,3.795 70.6118519,4.485 L70.6118519,7.475 L69.5851852,7.475 L69.5851852,0.345 L69.4711111,0.345 Z" id="Path"></path>
                            <path d="M79.8518519,6.095 C79.6237037,7.015 78.8251852,7.59 77.5703704,7.59 C76.0874074,7.59 75.1748148,6.555 75.1748148,4.945 C75.1748148,3.335 76.0874074,2.185 77.5703704,2.185 C79.0533333,2.185 79.8518519,3.22 79.8518519,4.83 L79.8518519,5.175 L76.2014815,5.175 L76.2014815,5.175 C76.2014815,6.095 76.7718519,6.67 77.5703704,6.67 C78.1407407,6.67 78.597037,6.44 78.8251852,6.095 L79.8518519,6.095 Z M76.2014815,4.485 L78.8251852,4.485 C78.8251852,3.68 78.2548148,3.105 77.5703704,3.105 C76.8859259,3.105 76.3155556,3.68 76.2014815,4.485 Z" id="Shape"></path>
                        </g>
                        <g id="XMLID_1_" transform="translate(12.548148, 6.900000)" fill="#FFFFFF">
                            <g id="XMLID_2_">
                                <path d="M20.7614815,16.56 C20.7614815,12.88 23.8414815,11.04 23.9555556,10.925 C22.2444444,8.395 19.5066667,8.05 18.5940741,8.05 C16.3125926,7.82 14.1451852,9.43 13.0044444,9.43 C11.8637037,9.43 10.0385185,8.05 8.21333333,8.165 C5.81777778,8.165 3.42222222,9.66 2.16740741,11.845 C-0.456296296,16.33 1.48296296,23 3.99259259,26.68 C5.24740741,28.52 6.73037037,30.475 8.55555556,30.36 C10.3807407,30.245 11.0651852,29.21 13.3466667,29.21 C15.6281481,29.21 16.1985185,30.36 18.1377778,30.36 C20.1911111,30.36 21.4459259,28.52 22.5866667,26.795 C24.0696296,24.725 24.64,22.77 24.64,22.655 C24.64,22.425 20.7614815,21.045 20.7614815,16.56 Z" id="XMLID_4_"></path>
                                <path d="M17.1111111,5.635 C18.1377778,4.37 18.8222222,2.645 18.5940741,0.92 C17.1111111,1.035 15.2859259,1.955 14.2592593,3.22 C13.3466667,4.255 12.5481481,6.095 12.7762963,7.82 C14.3733333,7.82 16.0844444,6.785 17.1111111,5.635 Z" id="XMLID_3_"></path>
                            </g>
                        </g>
                    </g>
                </g>
            </g>
        </g>
    </g>
</svg>