<?xml version="1.0" encoding="UTF-8"?>
<svg width="154px" height="46px" viewBox="0 0 154 46" version="1.1" xmlns="http://www.w3.org/2000/svg" xmlns:xlink="http://www.w3.org/1999/xlink">
    <title>F7A87722-1E86-41F5-90B8-4034AC869182</title>
    <defs>
        <linearGradient x1="80.6768473%" y1="49.4164706%" x2="-157.518227%" y2="49.4164706%" id="linearGradient-1">
            <stop stop-color="#FEE000" offset="0%"></stop>
            <stop stop-color="#FCCF0B" offset="19.41%"></stop>
            <stop stop-color="#FAB318" offset="54.69%"></stop>
            <stop stop-color="#F9A21B" offset="82.79%"></stop>
            <stop stop-color="#F99B1C" offset="100%"></stop>
        </linearGradient>
        <linearGradient x1="86.3143713%" y1="30.5036666%" x2="-49.8502994%" y2="137.304243%" id="linearGradient-2">
            <stop stop-color="#EF4547" offset="0%"></stop>
            <stop stop-color="#C6186D" offset="100%"></stop>
        </linearGradient>
        <linearGradient x1="-50.4568862%" y1="-37.5124358%" x2="60.7179641%" y2="49.2826959%" id="linearGradient-3">
            <stop stop-color="#279E6F" offset="0%"></stop>
            <stop stop-color="#4DAB6D" offset="31.68%"></stop>
            <stop stop-color="#6ABA6A" offset="73.98%"></stop>
            <stop stop-color="#74C169" offset="100%"></stop>
        </linearGradient>
    </defs>
    <g id="Homepage" stroke="none" stroke-width="1" fill="none" fill-rule="evenodd">
        <g id="LG-Homepage-DE" transform="translate(-882.000000, -5972.000000)" fill-rule="nonzero">
            <g id="Footer/Large" transform="translate(0.000000, 5923.000000)">
                <g id="Media/AppStore/EN-Copy" transform="translate(882.000000, 49.000000)">
                    <g id="google-play-badge_ENG_reinzeichnung20180910">
                        <g id="Group" fill="#000000">
                            <path d="M148.296296,46 L5.7037037,46 C2.50962963,46 0,43.47 0,40.25 L0,5.75 C0,2.53 2.50962963,0 5.7037037,0 L148.296296,0 C151.49037,0 154,2.53 154,5.75 L154,40.25 C154,43.47 151.49037,46 148.296296,46 Z" id="Path"></path>
                            <path d="M148.296296,0.92 C150.92,0.92 153.087407,3.105 153.087407,5.75 L153.087407,40.25 C153.087407,42.895 150.92,45.08 148.296296,45.08 L5.7037037,45.08 C3.08,45.08 0.912592593,42.895 0.912592593,40.25 L0.912592593,5.75 C0.912592593,3.105 3.08,0.92 5.7037037,0.92 L148.296296,0.92 M148.296296,0 L5.7037037,0 C2.50962963,0 0,2.645 0,5.75 L0,40.25 C0,43.47 2.50962963,46 5.7037037,46 L148.296296,46 C151.49037,46 154,43.47 154,40.25 L154,5.75 C154,2.645 151.49037,0 148.296296,0 L148.296296,0 Z" id="Shape"></path>
                        </g>
                        <g id="Group" transform="translate(46.770370, 6.900000)" fill="#FFFFFF" stroke="#FFFFFF" stroke-width="0.2">
                            <path d="M7.30074074,4.83 C7.30074074,5.75 7.07259259,6.555 6.50222222,7.13 C5.81777778,7.82 5.01925926,8.165 3.99259259,8.165 C2.96592593,8.165 2.16740741,7.82 1.48296296,7.13 C0.798518519,6.44 0.456296296,5.635 0.456296296,4.6 C0.456296296,3.565 0.798518519,2.76 1.48296296,2.07 C2.16740741,1.38 2.96592593,1.035 3.99259259,1.035 C4.44888889,1.035 4.90518519,1.15 5.36148148,1.38 C5.81777778,1.61 6.16,1.84 6.38814815,2.185 L5.81777778,2.76 C5.36148148,2.185 4.79111111,1.955 3.99259259,1.955 C3.30814815,1.955 2.6237037,2.185 2.16740741,2.76 C1.59703704,3.22 1.36888889,3.91 1.36888889,4.715 C1.36888889,5.52 1.59703704,6.21 2.16740741,6.67 C2.73777778,7.13 3.30814815,7.475 3.99259259,7.475 C4.79111111,7.475 5.36148148,7.245 5.93185185,6.67 C6.27407407,6.325 6.50222222,5.865 6.50222222,5.29 L3.99259259,5.29 L3.99259259,4.37 L7.30074074,4.37 C7.30074074,4.485 7.30074074,4.715 7.30074074,4.83 Z" id="Path"></path>
                            <polygon id="Path" points="12.5481481 1.955 9.46814815 1.955 9.46814815 4.14 12.32 4.14 12.32 4.945 9.46814815 4.945 9.46814815 7.13 12.5481481 7.13 12.5481481 8.05 8.55555556 8.05 8.55555556 1.15 12.5481481 1.15"></polygon>
                            <polygon id="Path" points="16.3125926 8.05 15.4 8.05 15.4 1.955 13.4607407 1.955 13.4607407 1.15 18.2518519 1.15 18.2518519 1.955 16.3125926 1.955"></polygon>
                            <polygon id="Path" points="21.56 8.05 21.56 1.15 22.4725926 1.15 22.4725926 8.05"></polygon>
                            <polygon id="Path" points="26.3511111 8.05 25.4385185 8.05 25.4385185 1.955 23.4992593 1.955 23.4992593 1.15 28.1762963 1.15 28.1762963 1.955 26.237037 1.955 26.237037 8.05"></polygon>
                            <path d="M37.1881481,7.13 C36.5037037,7.82 35.7051852,8.165 34.6785185,8.165 C33.6518519,8.165 32.8533333,7.82 32.1688889,7.13 C31.4844444,6.44 31.1422222,5.635 31.1422222,4.6 C31.1422222,3.565 31.4844444,2.76 32.1688889,2.07 C32.8533333,1.38 33.6518519,1.035 34.6785185,1.035 C35.7051852,1.035 36.5037037,1.38 37.1881481,2.07 C37.8725926,2.76 38.2148148,3.565 38.2148148,4.6 C38.2148148,5.635 37.8725926,6.44 37.1881481,7.13 Z M32.8533333,6.555 C33.3096296,7.015 33.9940741,7.36 34.6785185,7.36 C35.362963,7.36 36.0474074,7.13 36.5037037,6.555 C36.96,6.095 37.3022222,5.405 37.3022222,4.6 C37.3022222,3.795 37.0740741,3.105 36.5037037,2.645 C36.0474074,2.185 35.362963,1.84 34.6785185,1.84 C33.9940741,1.84 33.3096296,2.07 32.8533333,2.645 C32.397037,3.105 32.0548148,3.795 32.0548148,4.6 C32.0548148,5.405 32.282963,6.095 32.8533333,6.555 Z" id="Shape"></path>
                            <polygon id="Path" points="39.4696296 8.05 39.4696296 1.15 40.4962963 1.15 43.8044444 6.555 43.8044444 6.555 43.8044444 5.175 43.8044444 1.15 44.717037 1.15 44.717037 8.05 43.8044444 8.05 40.2681481 2.415 40.2681481 2.415 40.2681481 3.795 40.2681481 8.05"></polygon>
                        </g>
                        <path d="M77.6844444,25.07 C74.9466667,25.07 72.7792593,27.14 72.7792593,30.015 C72.7792593,32.775 74.9466667,34.96 77.6844444,34.96 C80.4222222,34.96 82.5896296,32.89 82.5896296,30.015 C82.5896296,27.025 80.4222222,25.07 77.6844444,25.07 Z M77.6844444,32.89 C76.2014815,32.89 74.9466667,31.625 74.9466667,29.9 C74.9466667,28.175 76.2014815,26.91 77.6844444,26.91 C79.1674074,26.91 80.4222222,28.06 80.4222222,29.9 C80.4222222,31.625 79.1674074,32.89 77.6844444,32.89 Z M67.0755556,25.07 C64.3377778,25.07 62.1703704,27.14 62.1703704,30.015 C62.1703704,32.775 64.3377778,34.96 67.0755556,34.96 C69.8133333,34.96 71.9807407,32.89 71.9807407,30.015 C71.9807407,27.025 69.8133333,25.07 67.0755556,25.07 Z M67.0755556,32.89 C65.5925926,32.89 64.3377778,31.625 64.3377778,29.9 C64.3377778,28.175 65.5925926,26.91 67.0755556,26.91 C68.5585185,26.91 69.8133333,28.06 69.8133333,29.9 C69.8133333,31.625 68.5585185,32.89 67.0755556,32.89 Z M54.4133333,26.565 L54.4133333,28.635 L59.3185185,28.635 C59.2044444,29.785 58.7481481,30.705 58.1777778,31.28 C57.4933333,31.97 56.3525926,32.775 54.4133333,32.775 C51.3333333,32.775 49.0518519,30.36 49.0518519,27.255 C49.0518519,24.15 51.4474074,21.735 54.4133333,21.735 C56.0103704,21.735 57.2651852,22.425 58.1777778,23.23 L59.6607407,21.735 C58.4059259,20.585 56.8088889,19.665 54.5274074,19.665 C50.4207407,19.665 46.8844444,23.115 46.8844444,27.255 C46.8844444,31.395 50.4207407,34.845 54.5274074,34.845 C56.8088889,34.845 58.4059259,34.155 59.7748148,32.66 C61.1437037,31.28 61.6,29.325 61.6,27.83 C61.6,27.37 61.6,26.91 61.4859259,26.565 L54.4133333,26.565 L54.4133333,26.565 Z M106.202963,28.175 C105.746667,27.025 104.605926,25.07 102.096296,25.07 C99.5866667,25.07 97.5333333,27.025 97.5333333,30.015 C97.5333333,32.775 99.5866667,34.96 102.324444,34.96 C104.491852,34.96 105.860741,33.58 106.317037,32.775 L104.72,31.625 C104.14963,32.43 103.465185,33.005 102.324444,33.005 C101.183704,33.005 100.499259,32.545 99.9288889,31.51 L106.431111,28.75 L106.202963,28.175 Z M99.5866667,29.785 C99.5866667,27.945 101.06963,26.91 102.096296,26.91 C102.894815,26.91 103.693333,27.37 103.921481,27.945 L99.5866667,29.785 Z M94.2251852,34.5 L96.3925926,34.5 L96.3925926,20.125 L94.2251852,20.125 L94.2251852,34.5 Z M90.802963,26.105 L90.802963,26.105 C90.2325926,25.53 89.32,24.955 88.1792593,24.955 C85.7837037,24.955 83.5022222,27.14 83.5022222,29.9 C83.5022222,32.66 85.6696296,34.73 88.1792593,34.73 C89.32,34.73 90.2325926,34.155 90.6888889,33.58 L90.802963,33.58 L90.802963,34.27 C90.802963,36.11 89.7762963,37.145 88.1792593,37.145 C86.9244444,37.145 86.0118519,36.225 85.7837037,35.42 L83.9585185,36.225 C84.5288889,37.49 85.8977778,39.1 88.2933333,39.1 C90.802963,39.1 92.8562963,37.605 92.8562963,34.04 L92.8562963,25.3 L90.802963,25.3 L90.802963,26.105 L90.802963,26.105 Z M88.2933333,32.89 C86.8103704,32.89 85.5555556,31.625 85.5555556,29.9 C85.5555556,28.175 86.8103704,26.91 88.2933333,26.91 C89.7762963,26.91 90.917037,28.175 90.917037,29.9 C90.917037,31.625 89.7762963,32.89 88.2933333,32.89 Z M116.127407,20.125 L110.994074,20.125 L110.994074,34.5 L113.161481,34.5 L113.161481,29.095 L116.127407,29.095 C118.522963,29.095 120.804444,27.37 120.804444,24.61 C120.804444,21.85 118.522963,20.125 116.127407,20.125 Z M116.241481,27.025 L113.161481,27.025 L113.161481,22.08 L116.241481,22.08 C117.838519,22.08 118.751111,23.46 118.751111,24.495 C118.637037,25.76 117.724444,27.025 116.241481,27.025 Z M129.36,24.955 C127.762963,24.955 126.165926,25.645 125.595556,27.14 L127.534815,27.945 C127.991111,27.14 128.675556,26.91 129.474074,26.91 C130.614815,26.91 131.641481,27.6 131.755556,28.75 L131.755556,28.865 C131.413333,28.635 130.500741,28.29 129.588148,28.29 C127.534815,28.29 125.481481,29.44 125.481481,31.51 C125.481481,33.465 127.192593,34.73 129.017778,34.73 C130.500741,34.73 131.185185,34.04 131.755556,33.35 L131.86963,33.35 L131.86963,34.5 L133.922963,34.5 L133.922963,28.98 C133.694815,26.45 131.755556,24.955 129.36,24.955 Z M129.131852,32.89 C128.447407,32.89 127.420741,32.545 127.420741,31.625 C127.420741,30.475 128.675556,30.13 129.702222,30.13 C130.614815,30.13 131.071111,30.36 131.641481,30.59 C131.413333,31.97 130.272593,32.89 129.131852,32.89 Z M141.10963,25.3 L138.714074,31.51 L138.6,31.51 L136.09037,25.3 L133.808889,25.3 L137.573333,34.04 L135.405926,38.87 L137.573333,38.87 L143.391111,25.3 L141.10963,25.3 L141.10963,25.3 Z M121.945185,34.5 L124.112593,34.5 L124.112593,20.125 L121.945185,20.125 L121.945185,34.5 Z" id="Shape" fill="#FFFFFF"></path>
                        <g id="Group" transform="translate(11.407407, 8.050000)">
                            <path d="M0.456296296,0.575 C0.114074074,1.035 0,1.495 0,2.3 L0,27.6 C0,28.29 0.228148148,28.865 0.57037037,29.21 L0.684444444,29.325 L14.8296296,15.065 L14.8296296,14.95 L14.8296296,14.835 L0.456296296,0.575 L0.456296296,0.575 Z" id="Path" fill="#5BC9F4"></path>
                            <path d="M19.3925926,19.895 L14.7155556,15.18 L14.7155556,14.95 L14.7155556,14.835 L19.3925926,10.12 L19.5066667,10.235 L25.0962963,13.455 C26.6933333,14.375 26.6933333,15.87 25.0962963,16.79 L19.3925926,19.895 L19.3925926,19.895 Z" id="Path" fill="url(#linearGradient-1)"></path>
                            <path d="M19.5066667,19.78 L14.7155556,14.95 L0.456296296,29.325 C1.02666667,29.9 1.82518519,29.9 2.85185185,29.44 L19.5066667,19.78" id="Path" fill="url(#linearGradient-2)"></path>
                            <path d="M19.5066667,10.12 L2.85185185,0.575 C1.82518519,1.11022302e-16 1.02666667,0.115 0.456296296,0.69 L14.7155556,14.95 L19.5066667,10.12 Z" id="Path" fill="url(#linearGradient-3)"></path>
                        </g>
                    </g>
                </g>
            </g>
        </g>
    </g>
</svg>